<?xml version="1.0" encoding="utf-8"?>
<!-- Generator: Adobe Illustrator 16.0.0, SVG Export Plug-In . SVG Version: 6.00 Build 0)  -->
<!DOCTYPE svg PUBLIC "-//W3C//DTD SVG 1.1//EN" "http://www.w3.org/Graphics/SVG/1.1/DTD/svg11.dtd">
<svg version="1.1" id="Layer_1" xmlns="http://www.w3.org/2000/svg" xmlns:xlink="http://www.w3.org/1999/xlink" x="0px" y="0px"
	 width="500px" height="500px" viewBox="0 0 500 500" enable-background="new 0 0 500 500" xml:space="preserve">
<circle fill="none" stroke="#006A4E" stroke-width="12" stroke-miterlimit="10" cx="250.5" cy="252.5" r="241.5"/>
<g>
	<path fill="#FFCE00" d="M91.24,177.49c2.579,0,5.069,0.51,7.47,1.53c2.399,1.021,4.514,2.43,6.345,4.23
		c1.83,1.8,3.285,3.915,4.365,6.345c1.08,2.43,1.62,5.026,1.62,7.785c0,2.761-0.511,5.355-1.53,7.785
		c-1.021,2.43-2.416,4.545-4.185,6.345c-1.771,1.8-3.856,3.226-6.255,4.275c-2.4,1.05-5.01,1.575-7.83,1.575
		c-1.26,0-2.79-0.405-4.59-1.215c-1.8-0.81-3.84-2.084-6.12-3.825v18.09c0,1.32-0.45,2.416-1.35,3.285
		c-0.9,0.871-1.98,1.305-3.24,1.305c-1.26,0-2.326-0.435-3.195-1.305c-0.871-0.869-1.305-1.964-1.305-3.285v-32.94
		c0.059-2.579,0.615-5.07,1.665-7.47c1.049-2.399,2.475-4.529,4.275-6.39c1.8-1.859,3.884-3.344,6.255-4.455
		C86.004,178.045,88.54,177.49,91.24,177.49z M91.24,208.18c1.499,0,2.894-0.27,4.185-0.81c1.29-0.54,2.43-1.305,3.42-2.295
		c0.99-0.99,1.769-2.129,2.34-3.42c0.569-1.29,0.855-2.714,0.855-4.275c0-1.499-0.286-2.894-0.855-4.185
		c-0.571-1.29-1.35-2.415-2.34-3.375c-0.99-0.959-2.131-1.724-3.42-2.295c-1.291-0.569-2.686-0.855-4.185-0.855
		c-1.5,0-2.896,0.286-4.185,0.855c-1.291,0.571-2.416,1.336-3.375,2.295c-0.96,0.96-1.726,2.085-2.295,3.375
		c-0.571,1.291-0.855,2.686-0.855,4.185c0,1.561,0.284,2.985,0.855,4.275c0.57,1.291,1.335,2.43,2.295,3.42
		c0.959,0.99,2.084,1.755,3.375,2.295C88.345,207.91,89.74,208.18,91.24,208.18z"/>
	<path fill="#FFCE00" d="M135.43,191.53c2.7,0.301,5.234,1.08,7.605,2.34c2.369,1.26,4.41,2.866,6.12,4.815
		c1.71,1.95,3.06,4.171,4.05,6.66c0.99,2.49,1.485,5.116,1.485,7.875v17.37c0,1.201-0.45,2.236-1.35,3.105
		c-0.9,0.871-1.921,1.305-3.06,1.305c-0.42,0-0.886-0.029-1.395-0.09c-0.51-0.059-1.005-0.225-1.485-0.495
		c-0.481-0.27-0.916-0.644-1.305-1.125c-0.391-0.479-0.616-1.139-0.675-1.98c-0.301,0.121-0.841,0.391-1.62,0.81
		c-0.78,0.42-1.35,0.72-1.71,0.9c-0.661,0.301-1.35,0.571-2.07,0.81c-0.72,0.24-1.471,0.481-2.25,0.72
		c-1.5,0.301-3.121,0.45-4.86,0.45c-4.5,0-8.521-1.215-12.06-3.645c-3.541-2.43-6.181-5.564-7.92-9.405
		c-0.601-1.319-1.066-2.714-1.395-4.185c-0.331-1.47-0.495-2.984-0.495-4.545c0-1.56,0.165-3.06,0.495-4.5
		c0.329-1.44,0.794-2.849,1.395-4.23c1.739-3.9,4.379-7.05,7.92-9.45c3.54-2.399,7.56-3.6,12.06-3.6c0.479,0,0.9,0,1.26,0
		S134.949,191.471,135.43,191.53z M132.82,226.18c1.74,0,3.405-0.329,4.995-0.99c1.589-0.66,2.97-1.575,4.14-2.745
		c1.17-1.17,2.1-2.534,2.79-4.095c0.689-1.56,1.035-3.27,1.035-5.13c0-1.679-0.346-3.315-1.035-4.905
		c-0.69-1.589-1.636-2.97-2.835-4.14c-1.201-1.17-2.581-2.115-4.14-2.835c-1.561-0.72-3.21-1.08-4.95-1.08
		c-1.741,0-3.375,0.346-4.905,1.035c-1.53,0.69-2.896,1.636-4.095,2.835c-1.201,1.201-2.146,2.581-2.835,4.14
		c-0.69,1.561-1.035,3.21-1.035,4.95c0,1.8,0.36,3.48,1.08,5.04c0.72,1.561,1.695,2.925,2.925,4.095
		c1.229,1.17,2.61,2.101,4.14,2.79C129.625,225.835,131.2,226.18,132.82,226.18z"/>
	<path fill="#FFCE00" d="M161.619,235.09c-1.141,0-2.115-0.419-2.924-1.26c-0.811-0.84-1.307-1.859-1.486-3.06v-18.09
		c0.061-2.939,0.676-5.67,1.846-8.19c1.17-2.52,2.744-4.725,4.725-6.615s4.275-3.389,6.885-4.5c2.611-1.109,5.385-1.724,8.326-1.845
		c1.139,0.061,2.129,0.54,2.969,1.44c0.84,0.9,1.35,1.89,1.531,2.97c-0.121,1.141-0.602,2.146-1.441,3.015
		c-0.84,0.871-1.859,1.336-3.059,1.395c-1.742,0-3.391,0.331-4.951,0.99c-1.561,0.661-2.924,1.575-4.094,2.745
		s-2.102,2.536-2.791,4.095c-0.689,1.561-1.035,3.271-1.035,5.13v17.91c-0.18,1.021-0.674,1.921-1.484,2.7
		C163.824,234.701,162.818,235.09,161.619,235.09z"/>
	<path fill="#FFCE00" d="M189.79,177.4c1.318,0,2.414,0.465,3.285,1.395c0.868,0.931,1.363,2.085,1.484,3.465v8.1h20.79
		c1.26,0,2.31,0.466,3.15,1.395c0.839,0.931,1.26,1.996,1.26,3.195c0,1.201-0.45,2.281-1.35,3.24c-0.9,0.96-1.921,1.44-3.061,1.44
		h-20.79v13.14c0,1.741,0.329,3.406,0.99,4.995c0.659,1.59,1.575,2.985,2.745,4.185c1.17,1.201,2.55,2.16,4.14,2.88
		c1.589,0.72,3.285,1.08,5.085,1.08c2.039,0,3.765-0.284,5.175-0.855c1.409-0.57,2.655-1.364,3.735-2.385h-0.09
		c0.9-0.839,2.01-1.26,3.33-1.26c1.26,0,2.369,0.45,3.33,1.35c0.839,0.781,1.26,1.831,1.26,3.15c0,0.481-0.076,0.976-0.225,1.485
		c-0.15,0.51-0.437,0.945-0.855,1.305h0.09c-2.101,2.04-4.396,3.6-6.885,4.68c-2.49,1.08-5.206,1.62-8.145,1.62
		c-3.121,0-6.075-0.524-8.865-1.575c-2.79-1.049-5.221-2.549-7.29-4.5c-2.07-1.949-3.735-4.289-4.995-7.02
		c-1.26-2.729-1.921-5.774-1.98-9.135v-30.51c0-1.199,0.435-2.309,1.306-3.33C187.284,177.911,188.409,177.4,189.79,177.4z"/>
	<path fill="#FFCE00" d="M229.568,191.35c1.199,0,2.264,0.375,3.195,1.125c0.929,0.751,1.395,1.726,1.395,2.925v17.73
		c0,1.741,0.329,3.391,0.99,4.95c0.659,1.561,1.56,2.925,2.7,4.095c1.139,1.17,2.504,2.101,4.095,2.79
		c1.589,0.69,3.285,1.035,5.085,1.035c1.62,0,3.209-0.315,4.77-0.945c1.56-0.63,2.955-1.485,4.186-2.565
		c1.229-1.08,2.205-2.385,2.925-3.915c0.72-1.53,1.08-3.195,1.08-4.995v-17.91c0-1.199,0.419-2.219,1.26-3.06
		c0.84-0.839,1.891-1.26,3.15-1.26c1.199,0,2.25,0.375,3.149,1.125c0.9,0.751,1.351,1.726,1.351,2.925v49.41
		c0,1.2-0.45,2.189-1.351,2.97c-0.899,0.779-1.95,1.17-3.149,1.17c-1.141,0-2.16-0.405-3.061-1.215
		c-0.899-0.81-1.35-1.876-1.35-3.195v-13.77c-2.4,1.5-4.695,2.565-6.885,3.195c-2.191,0.63-4.216,0.945-6.075,0.945
		c-2.94,0-5.73-0.57-8.37-1.71c-2.641-1.139-4.966-2.7-6.975-4.68c-2.011-1.98-3.601-4.35-4.771-7.11
		c-1.17-2.759-1.755-5.76-1.755-9v-16.74c0-1.199,0.419-2.219,1.26-3.06C227.258,191.771,228.309,191.35,229.568,191.35z"/>
	<path fill="#D21034" d="M291.757,177.49c2.579,0,5.069,0.51,7.47,1.53c2.399,1.021,4.514,2.43,6.345,4.23
		c1.83,1.8,3.285,3.915,4.365,6.345c1.08,2.43,1.62,5.026,1.62,7.785c0,2.761-0.511,5.355-1.53,7.785
		c-1.021,2.43-2.416,4.545-4.185,6.345c-1.771,1.8-3.856,3.226-6.255,4.275c-2.4,1.05-5.011,1.575-7.83,1.575
		c-1.26,0-2.79-0.405-4.59-1.215c-1.801-0.81-3.841-2.084-6.12-3.825v18.09c0,1.32-0.45,2.416-1.351,3.285
		c-0.899,0.871-1.979,1.305-3.239,1.305c-1.261,0-2.326-0.435-3.195-1.305c-0.87-0.869-1.305-1.964-1.305-3.285v-32.94
		c0.059-2.579,0.614-5.07,1.665-7.47c1.049-2.399,2.475-4.529,4.274-6.39c1.8-1.859,3.884-3.344,6.255-4.455
		C286.521,178.045,289.057,177.49,291.757,177.49z M291.757,208.18c1.499,0,2.894-0.27,4.185-0.81c1.29-0.54,2.431-1.305,3.42-2.295
		c0.99-0.99,1.77-2.129,2.34-3.42c0.57-1.29,0.855-2.714,0.855-4.275c0-1.499-0.285-2.894-0.855-4.185
		c-0.57-1.29-1.35-2.415-2.34-3.375c-0.989-0.959-2.13-1.724-3.42-2.295c-1.291-0.569-2.686-0.855-4.185-0.855
		c-1.501,0-2.896,0.286-4.186,0.855c-1.291,0.571-2.416,1.336-3.375,2.295c-0.96,0.96-1.726,2.085-2.295,3.375
		c-0.57,1.291-0.854,2.686-0.854,4.185c0,1.561,0.284,2.985,0.854,4.275c0.569,1.291,1.335,2.43,2.295,3.42
		c0.959,0.99,2.084,1.755,3.375,2.295C288.861,207.91,290.256,208.18,291.757,208.18z"/>
	<path fill="#D21034" d="M335.946,191.53c2.7,0.301,5.234,1.08,7.605,2.34c2.369,1.26,4.41,2.866,6.12,4.815
		c1.71,1.95,3.06,4.171,4.05,6.66c0.99,2.49,1.485,5.116,1.485,7.875v17.37c0,1.201-0.45,2.236-1.351,3.105
		c-0.899,0.871-1.921,1.305-3.06,1.305c-0.421,0-0.887-0.029-1.396-0.09c-0.511-0.059-1.005-0.225-1.484-0.495
		c-0.481-0.27-0.916-0.644-1.306-1.125c-0.391-0.479-0.615-1.139-0.675-1.98c-0.301,0.121-0.841,0.391-1.62,0.81
		c-0.78,0.42-1.35,0.72-1.71,0.9c-0.661,0.301-1.35,0.571-2.07,0.81c-0.72,0.24-1.471,0.481-2.25,0.72
		c-1.5,0.301-3.12,0.45-4.859,0.45c-4.5,0-8.521-1.215-12.061-3.645c-3.541-2.43-6.18-5.564-7.92-9.405
		c-0.601-1.319-1.065-2.714-1.395-4.185c-0.331-1.47-0.495-2.984-0.495-4.545c0-1.56,0.164-3.06,0.495-4.5
		c0.329-1.44,0.794-2.849,1.395-4.23c1.74-3.9,4.379-7.05,7.92-9.45c3.54-2.399,7.561-3.6,12.061-3.6c0.479,0,0.899,0,1.26,0
		S335.466,191.471,335.946,191.53z M333.337,226.18c1.739,0,3.404-0.329,4.995-0.99c1.589-0.66,2.97-1.575,4.14-2.745
		c1.17-1.17,2.1-2.534,2.79-4.095c0.688-1.56,1.035-3.27,1.035-5.13c0-1.679-0.347-3.315-1.035-4.905
		c-0.69-1.589-1.636-2.97-2.835-4.14c-1.201-1.17-2.581-2.115-4.141-2.835c-1.561-0.72-3.21-1.08-4.949-1.08
		c-1.741,0-3.375,0.346-4.905,1.035c-1.53,0.69-2.896,1.636-4.095,2.835c-1.201,1.201-2.146,2.581-2.835,4.14
		c-0.69,1.561-1.035,3.21-1.035,4.95c0,1.8,0.359,3.48,1.08,5.04c0.72,1.561,1.694,2.925,2.925,4.095
		c1.229,1.17,2.61,2.101,4.14,2.79C330.142,225.835,331.717,226.18,333.337,226.18z"/>
	<path fill="#D21034" d="M379.417,191.44c5.999,0,11.1,2.101,15.3,6.3h-0.09c0.419,0.42,0.704,0.855,0.854,1.305
		c0.149,0.45,0.226,0.886,0.226,1.305c0,1.26-0.45,2.34-1.351,3.24c-0.42,0.42-0.915,0.72-1.484,0.9
		c-0.571,0.18-1.156,0.27-1.756,0.27c-1.32,0-2.37-0.389-3.149-1.17c-2.461-2.219-5.311-3.33-8.55-3.33
		c-1.741,0-3.406,0.36-4.995,1.08c-1.591,0.72-2.985,1.681-4.186,2.88c-1.2,1.201-2.146,2.58-2.835,4.14
		c-0.69,1.561-1.035,3.181-1.035,4.86c0,1.741,0.36,3.406,1.08,4.995c0.721,1.591,1.68,3.001,2.88,4.23
		c1.2,1.23,2.579,2.191,4.141,2.88c1.56,0.69,3.209,0.976,4.95,0.855c3.299,0,6.329-1.229,9.09-3.69c0.54-0.599,1.439-0.9,2.7-0.9
		c1.139,0,2.159,0.481,3.06,1.44c0.959,0.9,1.44,1.89,1.44,2.97c0,0.481-0.091,0.976-0.271,1.485c-0.18,0.511-0.45,0.916-0.81,1.215
		c-2.102,2.101-4.396,3.676-6.886,4.725c-2.49,1.051-5.265,1.575-8.324,1.575c-3.001,0-5.821-0.585-8.46-1.755
		c-2.642-1.17-4.95-2.745-6.931-4.725c-1.979-1.98-3.555-4.289-4.725-6.93c-1.17-2.639-1.755-5.429-1.755-8.37
		c0-2.88,0.585-5.625,1.755-8.235c1.17-2.61,2.759-4.919,4.77-6.93c2.01-2.01,4.334-3.614,6.976-4.815
		C373.687,192.041,376.477,191.44,379.417,191.44z"/>
	<path fill="#D21034" d="M432.516,227.17c0.36,0.481,0.66,1.005,0.9,1.575c0.239,0.571,0.36,1.125,0.36,1.665
		c0,0.6-0.091,1.186-0.271,1.755c-0.18,0.571-0.511,1.095-0.99,1.575v-0.09c-1.08,0.96-2.22,1.44-3.42,1.44s-2.25-0.45-3.149-1.35
		l-18.09-18.09v14.76c0,1.201-0.466,2.265-1.396,3.195c-0.931,0.931-2.025,1.395-3.285,1.395c-1.201,0-2.28-0.45-3.24-1.35
		s-1.439-1.98-1.439-3.24v-48.33c0-1.2,0.464-2.264,1.395-3.195c0.93-0.929,2.025-1.395,3.285-1.395c1.319,0,2.431,0.45,3.33,1.35
		c0.9,0.9,1.351,1.98,1.351,3.24v28.08l18.09-18.09c0.839-0.839,1.89-1.26,3.149-1.26c0.6,0,1.2,0.105,1.8,0.315
		c0.6,0.211,1.14,0.556,1.62,1.035v-0.09c0.479,0.481,0.811,1.006,0.99,1.575c0.18,0.571,0.271,1.156,0.271,1.755
		c0,1.321-0.421,2.4-1.261,3.24l-14.31,14.31L432.516,227.17z"/>
</g>
<g>
	<path fill="#FFCE00" d="M181.835,321.365c-2.39,3.12-3.35,7.129-2.632,10.997c0.115,0.62,0.679,1.052,1.307,1.001
		c3.922-0.315,7.542-2.286,9.932-5.407c2.391-3.12,3.35-7.13,2.633-10.999c-0.115-0.62-0.68-1.052-1.308-1.002
		C187.846,316.272,184.225,318.244,181.835,321.365z M188.491,326.462c-1.731,2.26-4.246,3.787-7.025,4.3
		c-0.23-2.816,0.589-5.644,2.32-7.903c1.731-2.261,4.247-3.788,7.025-4.3C191.041,321.374,190.222,324.201,188.491,326.462z"/>
	<path fill="#FFCE00" d="M204.497,291.773c-2.39,3.121-3.35,7.13-2.633,10.998c0.115,0.62,0.679,1.053,1.308,1.002
		c3.922-0.316,7.542-2.288,9.932-5.408c2.39-3.121,3.35-7.13,2.632-10.999c-0.115-0.618-0.68-1.051-1.307-1
		C210.507,286.682,206.886,288.652,204.497,291.773z M211.152,296.87c-1.732,2.261-4.247,3.789-7.025,4.301
		c-0.231-2.816,0.588-5.643,2.32-7.904c1.73-2.259,4.247-3.787,7.025-4.3C213.703,291.783,212.883,294.61,211.152,296.87z"/>
	<path fill="#FFCE00" d="M211.059,277.807c3.016,0.392,5.895,1.582,8.324,3.443c2.597,1.988,4.459,4.577,5.579,7.42
		c0.924-0.246,1.801-0.195,2.655,0.056c-1.215-3.623-3.484-6.935-6.739-9.428c-2.772-2.122-6.059-3.481-9.503-3.928
		c-0.673-0.087-1.289,0.386-1.376,1.061C209.911,277.103,210.385,277.719,211.059,277.807z"/>
	<path fill="#FFCE00" d="M219.706,308.7c-2.713,2.277-5.617,3.438-8.081,4.418c-2.37,0.942-4.416,1.755-5.598,3.3
		c-1.183,1.545-1.435,3.731-1.726,6.265c-0.417,3.614-0.936,8.114-4.341,12.562c-5.836,7.62-16.783,9.071-24.404,3.234
		c-7.62-5.835-9.073-16.781-3.237-24.402c3.406-4.447,7.614-6.12,10.996-7.465c2.369-0.942,4.415-1.756,5.597-3.3
		c1.183-1.544,1.435-3.732,1.727-6.264c0.417-3.615,0.936-8.115,4.341-12.563c2.827-3.691,6.923-6.061,11.531-6.673
		c0.673-0.088,1.146-0.707,1.057-1.378c-0.088-0.674-0.707-1.147-1.379-1.057c-5.26,0.697-9.934,3.401-13.159,7.614
		c-3.819,4.985-4.404,10.064-4.832,13.774c-0.25,2.17-0.466,4.045-1.236,5.051c-0.77,1.006-2.523,1.702-4.555,2.51
		c-3.469,1.38-8.22,3.269-12.039,8.255c-6.66,8.696-5.003,21.188,3.693,27.849s21.189,5.004,27.849-3.693
		c3.818-4.985,4.404-10.064,4.832-13.774c0.25-2.171,0.467-4.045,1.237-5.051c0.77-1.005,2.523-1.703,4.554-2.51
		c2.626-1.044,5.985-2.384,9.119-5.133C220.873,309.912,220.186,309.379,219.706,308.7z"/>
	<path fill="#FFCE00" d="M197.15,344.184c-0.413,0.539-0.311,1.31,0.229,1.723l25.094,19.218c0.538,0.412,0.641,1.186,0.229,1.723
		c-0.412,0.538-1.186,0.642-1.724,0.229l-27.248-20.866c-0.539-0.413-1.31-0.312-1.722,0.228c-0.413,0.539-0.311,1.31,0.228,1.723
		l27.249,20.867c1.614,1.235,3.932,0.929,5.168-0.686c1.235-1.613,0.928-3.932-0.686-5.168l-25.094-19.218
		C198.333,343.542,197.562,343.645,197.15,344.184z"/>
</g>
<g>
	<path fill="#D21034" d="M283.132,318.894l0.799-1.394c0.412-0.72,0.164-1.639-0.558-2.053c-0.721-0.413-1.641-0.162-2.054,0.558
		l-0.798,1.394c-0.412,0.721-0.163,1.641,0.559,2.054C281.801,319.865,282.72,319.614,283.132,318.894z"/>
	<path fill="#D21034" d="M258.646,343.489c0.609,0.11,1.25-0.166,1.575-0.734l0.049-0.086l4.352,2.492l-8.995,15.706
		c-0.383-0.075-0.769-0.088-1.151-0.068c0.076,0.242,0.14,0.482,0.185,0.727c0.166,0.477,0.278,0.977,0.278,1.537
		c0,0.248-0.037,0.491-0.073,0.734c0.238,0.021,0.475,0.088,0.695,0.214l5.57,3.19c0.815,0.468,1.1,1.511,0.632,2.327
		c-0.468,0.815-1.511,1.099-2.326,0.633l-5.57-3.19c-0.164-0.094-0.301-0.217-0.42-0.351c-0.738,0.729-1.691,1.196-2.708,1.362
		c0.398,0.639,0.935,1.2,1.632,1.6l5.57,3.189c2.256,1.292,5.142,0.507,6.433-1.748c1.029-1.8,0.739-3.998-0.565-5.47l2.615-4.567
		l7.051,4.037c3.021,1.732,6.89,0.682,8.622-2.343l11.164-19.495c1.732-3.023,0.681-6.891-2.343-8.622l-7.049-4.038l6.096-10.645
		c4.161-7.264,10.739-12.958,18.526-16.031l3.443-1.359c0.675-0.266,1.215-0.74,1.558-1.34c0.228-0.396,0.368-0.848,0.402-1.328
		c0.087-1.202-0.509-2.322-1.556-2.922l-22.056-12.631c-1.046-0.6-2.313-0.548-3.308,0.137c-0.993,0.684-1.496,1.848-1.31,3.039
		l0.57,3.658c1.016,6.515,0.269,13.201-2.16,19.331c-0.306,0.771,0.073,1.646,0.846,1.951c0.771,0.307,1.646-0.071,1.953-0.844
		c2.625-6.63,3.433-13.856,2.335-20.901l-0.57-3.659c-0.005-0.027-0.011-0.062,0.042-0.097c0.051-0.036,0.08-0.02,0.106-0.004
		l22.055,12.631c0.026,0.015,0.055,0.031,0.051,0.095c-0.005,0.063-0.035,0.074-0.063,0.085l-3.443,1.359
		c-8.421,3.324-15.535,9.48-20.033,17.335l-26.033,45.456l-2.96-1.694l21.583-37.685c0.412-0.721,0.164-1.641-0.558-2.053
		c-0.002-0.001-0.003-0.002-0.004-0.002l-5.654-3.238l0.05-0.087c0.413-0.721,0.163-1.641-0.557-2.053
		c-0.722-0.413-1.642-0.163-2.054,0.557l-1.596,2.787c-0.412,0.721-0.163,1.639,0.559,2.052c0.721,0.413,1.64,0.164,2.053-0.557
		l0.05-0.088l4.352,2.492l-2.492,4.352l-4.352-2.492l0.051-0.088c0.412-0.721,0.162-1.64-0.559-2.053
		c-0.721-0.412-1.641-0.163-2.053,0.558l-1.596,2.785c-0.413,0.722-0.162,1.641,0.559,2.054c0.721,0.412,1.64,0.164,2.053-0.558
		l0.05-0.088l4.352,2.492l-2.491,4.352l-4.353-2.491l0.05-0.087c0.413-0.722,0.162-1.641-0.558-2.054
		c-0.721-0.412-1.64-0.163-2.054,0.559l-1.595,2.784c-0.413,0.721-0.162,1.64,0.559,2.053s1.64,0.163,2.053-0.558l0.05-0.087
		l4.352,2.492l-2.492,4.352l-4.352-2.492l0.05-0.087c0.412-0.721,0.163-1.641-0.558-2.053c-0.428-0.245-0.927-0.257-1.347-0.074
		 M259.911,337.844c-0.288,0.124-0.539,0.339-0.707,0.632l-1.594,2.784c-0.414,0.722-0.164,1.642,0.557,2.055
		c0.153,0.087,0.314,0.145,0.479,0.175 M279.183,338.707l4.352,2.492l-8.074,14.099l-4.352-2.492L279.183,338.707z M289.422,337.174
		c1.585,0.907,2.135,2.933,1.228,4.517l-11.164,19.495c-0.907,1.584-2.934,2.135-4.517,1.228l-7.051-4.038l1.695-2.959l5.657,3.24
		c0.721,0.412,1.64,0.163,2.052-0.559l9.57-16.71c0.413-0.721,0.163-1.64-0.558-2.053l-5.657-3.24l1.695-2.958L289.422,337.174z"/>
	<path fill="#D21034" d="M295.455,303.836c0.092-0.16,0.156-0.341,0.184-0.535c0.35-2.469,0.501-4.98,0.452-7.467
		c-0.016-0.829-0.704-1.49-1.534-1.474c-0.832,0.018-1.491,0.703-1.476,1.535c0.047,2.324-0.095,4.675-0.423,6.982
		c-0.115,0.822,0.456,1.585,1.279,1.7C294.565,304.667,295.157,304.355,295.455,303.836L295.455,303.836z"/>
</g>
<g>
	<path fill="#006A4E" d="M265.92,294.399c-0.533-0.538-1.243-0.834-1.997-0.834h-0.081v-0.091c0-3.152-2.565-5.717-5.718-5.717
		c-0.816,0-1.612,0.176-2.349,0.515c-1.322-1.262-3.057-1.967-4.911-1.967c-0.929,0-1.834,0.184-2.702,0.548
		c-1.734-1.295-3.836-2-6.009-2c-2.174,0-4.274,0.705-6.01,2c-0.868-0.364-1.773-0.548-2.702-0.548c-1.854,0-3.589,0.705-4.91,1.967
		c-0.737-0.339-1.532-0.515-2.35-0.515c-3.152,0-5.718,2.564-5.718,5.717v0.091h-0.084c-0.753,0-1.462,0.296-1.994,0.833
		c-0.534,0.538-0.825,1.251-0.819,2.007c0.135,17.248,2.667,26.315,5.116,35.084c2.345,8.396,4.77,17.077,5.02,33.195
		c0.036,2.316,1.945,4.201,4.257,4.201h20.388c2.312,0,4.221-1.885,4.257-4.201c0.25-16.119,2.675-24.8,5.02-33.195
		c2.449-8.769,4.981-17.836,5.116-35.084C266.745,295.65,266.454,294.938,265.92,294.399z M220.317,296.316
		c0.019-0.02,0.04-0.028,0.063-0.028h2.902c0.848,0,1.537,0.691,1.537,1.542c0,2.352,1.913,4.266,4.265,4.266
		c2.353,0,4.266-1.914,4.266-4.266c0-0.851,0.686-1.542,1.529-1.542h2.909c0.855,0,1.551,0.693,1.551,1.547v9.203
		c-0.42,0.136-0.78,0.288-1.113,0.431c-0.805,0.344-1.439,0.616-2.855,0.616s-2.052-0.272-2.854-0.616
		c-0.915-0.392-1.952-0.836-3.928-0.836c-1.974,0-3.01,0.444-3.924,0.836c-0.804,0.344-1.438,0.616-2.853,0.616
		c-0.368,0-0.697-0.021-1.001-0.059c-0.302-3.417-0.488-7.244-0.523-11.643C220.288,296.358,220.299,296.336,220.317,296.316
		L220.317,296.316z M259.001,330.757c-2.392,8.562-4.864,17.415-5.12,33.886c-0.013,0.838-0.701,1.521-1.534,1.521h-20.388
		c-0.833,0-1.521-0.683-1.534-1.521c-0.256-16.471-2.729-25.323-5.12-33.886c-1.675-5.999-3.289-11.777-4.217-19.973
		c0.233,0.015,0.472,0.023,0.725,0.023c1.974,0,3.01-0.444,3.924-0.836c0.804-0.345,1.438-0.616,2.853-0.616
		c1.417,0,2.052,0.271,2.855,0.616c0.915,0.392,1.952,0.836,3.927,0.836s3.012-0.444,3.927-0.836
		c0.015-0.006,0.028-0.012,0.042-0.018v15.464c0,2.352,1.913,4.265,4.265,4.265c2.353,0,4.266-1.913,4.266-4.265v-2.904
		c0-0.752-0.609-1.361-1.361-1.361s-1.361,0.609-1.361,1.361v2.904c0,0.851-0.692,1.542-1.543,1.542s-1.542-0.691-1.542-1.542
		v-27.583c0-2.354-1.917-4.27-4.273-4.27h-2.909c-2.345,0-4.252,1.913-4.252,4.265c0,0.851-0.692,1.543-1.543,1.543
		s-1.542-0.692-1.542-1.543c0-2.352-1.911-4.265-4.26-4.265h-0.097v-0.091c0-1.651,1.344-2.995,2.995-2.995
		c0.642,0,1.263,0.215,1.797,0.619c0.289,0.22,0.652,0.313,1.013,0.264c0.359-0.051,0.683-0.242,0.899-0.533
		c0.855-1.145,2.149-1.801,3.551-1.801c0.758,0,1.5,0.206,2.205,0.613c0.511,0.295,1.154,0.228,1.592-0.168
		c1.357-1.224,3.103-1.897,4.915-1.897c1.812,0,3.558,0.674,4.913,1.897c0.438,0.396,1.081,0.463,1.593,0.168
		c0.705-0.407,1.447-0.613,2.205-0.613c1.401,0,2.694,0.656,3.55,1.801c0.217,0.291,0.541,0.482,0.9,0.533
		c0.36,0.051,0.724-0.044,1.013-0.263c0.534-0.405,1.155-0.619,1.797-0.619c1.651,0,2.995,1.343,2.995,2.994v0.091h-0.087
		c-2.354,0-4.27,1.913-4.27,4.265v2.904c0,0.752,0.609,1.361,1.361,1.361s1.361-0.609,1.361-1.361v-2.904
		c0-0.851,0.694-1.542,1.547-1.542h2.891c0.023,0,0.045,0.01,0.064,0.029c0.021,0.02,0.03,0.042,0.03,0.066
		c-0.035,4.396-0.222,8.224-0.522,11.639c-0.313,0.041-0.65,0.063-1.028,0.063c-1.414,0-2.047-0.271-2.85-0.616
		c-0.043-0.019-0.088-0.037-0.132-0.057v-0.87c0-0.752-0.609-1.361-1.361-1.361s-1.361,0.609-1.361,1.361v1.682
		c-0.007,0.082-0.007,0.164,0,0.244v0.979c0,0.851-0.691,1.543-1.542,1.543s-1.543-0.692-1.543-1.543V297.83
		c0-2.352-1.914-4.265-4.266-4.265c-1.139,0-2.209,0.441-3.014,1.243c-0.807,0.804-1.252,1.874-1.251,3.014v11.244
		c-0.001,0.013,0,0.026,0,0.039v7.6c0,0.752,0.609,1.361,1.361,1.361s1.361-0.609,1.361-1.361v-5.946
		c0.335,0.031,0.684,0.049,1.055,0.049c0.896,0,1.599-0.093,2.185-0.229c0.497,1.804,2.151,3.133,4.111,3.133
		c2.054,0,3.773-1.46,4.176-3.396c0.747,0.27,1.673,0.493,3.07,0.493c0.262,0,0.51-0.01,0.751-0.025
		C262.29,318.979,260.677,324.757,259.001,330.757L259.001,330.757z M248.925,308.085c-0.421,0-0.765-0.026-1.055-0.065v-10.197
		c0-0.411,0.159-0.796,0.449-1.085c0.291-0.29,0.68-0.449,1.094-0.449c0.851,0,1.542,0.691,1.542,1.542v9.964
		C250.435,307.969,249.845,308.085,248.925,308.085z"/>
	<path fill="#006A4E" d="M249.413,360.355h-14.521c-0.751,0-1.36,0.609-1.36,1.361s0.609,1.361,1.36,1.361h14.521
		c0.751,0,1.36-0.609,1.36-1.361S250.164,360.355,249.413,360.355z"/>
</g>
</svg>
