<?xml version="1.0" encoding="utf-8"?>
<!-- Generator: Adobe Illustrator 16.0.0, SVG Export Plug-In . SVG Version: 6.00 Build 0)  -->
<!DOCTYPE svg PUBLIC "-//W3C//DTD SVG 1.1//EN" "http://www.w3.org/Graphics/SVG/1.1/DTD/svg11.dtd">
<svg version="1.1" id="Layer_1" xmlns="http://www.w3.org/2000/svg" xmlns:xlink="http://www.w3.org/1999/xlink" x="0px" y="0px"
	 width="362.336px" height="79.95px" viewBox="0 0 362.336 79.95" enable-background="new 0 0 362.336 79.95" xml:space="preserve">
<g>
	<path fill="#FFCE00" d="M50.9,16.539c1.248,0,2.387,0.457,3.42,1.368c1.032,0.912,1.548,2.064,1.548,3.456v36.288
		c0,0.625-0.133,1.225-0.396,1.8c-0.265,0.576-0.637,1.093-1.116,1.549c-0.48,0.456-1.021,0.816-1.62,1.079
		c-0.601,0.265-1.212,0.396-1.836,0.396c-1.249,0-2.353-0.468-3.312-1.404c-0.96-0.936-1.44-2.075-1.44-3.42V44.403H33.62v13.248
		c0,1.345-0.468,2.484-1.404,3.42c-0.936,0.937-2.1,1.404-3.492,1.404c-1.296,0-2.412-0.456-3.348-1.368
		c-0.936-0.911-1.429-2.063-1.476-3.456V21.363c0-1.487,0.515-2.664,1.548-3.528c1.032-0.864,2.124-1.296,3.276-1.296
		c1.392,0,2.556,0.48,3.492,1.44c0.936,0.961,1.404,2.088,1.404,3.384v13.248h12.528V21.363c0-1.296,0.479-2.423,1.44-3.384
		C48.547,17.02,49.651,16.539,50.9,16.539z"/>
	<path fill="#FFCE00" d="M77.036,27.627c2.304,0,4.511,0.48,6.624,1.44c2.111,0.961,3.971,2.245,5.58,3.852
		c1.607,1.609,2.891,3.456,3.852,5.544c0.959,2.088,1.44,4.284,1.44,6.588c0,1.248-0.468,2.352-1.404,3.313
		c-0.936,0.96-2.1,1.416-3.492,1.367H70.483c1.584,2.257,3.768,3.385,6.552,3.385c0.767,0,1.415-0.072,1.944-0.217
		c0.528-0.145,0.996-0.312,1.404-0.504c0.407-0.191,0.815-0.359,1.224-0.504c0.407-0.145,0.875-0.216,1.404-0.216
		c1.008,0.048,1.883,0.336,2.628,0.864c0.744,0.528,1.296,1.188,1.656,1.979c0.36,0.792,0.479,1.645,0.36,2.556
		c-0.121,0.913-0.54,1.753-1.26,2.521c-1.296,1.057-2.736,1.789-4.32,2.196c-1.584,0.408-3.265,0.637-5.04,0.684
		c-2.304,0.096-4.512-0.324-6.624-1.26c-2.113-0.937-3.972-2.207-5.58-3.816c-1.609-1.607-2.88-3.492-3.816-5.652
		s-1.404-4.392-1.404-6.695c0-2.256,0.468-4.439,1.404-6.552c0.936-2.111,2.196-3.971,3.78-5.58
		c1.584-1.607,3.432-2.891,5.544-3.852C72.451,28.107,74.683,27.627,77.036,27.627z M83.587,40.299
		c-0.816-1.008-1.776-1.812-2.88-2.412c-1.104-0.6-2.329-0.9-3.672-0.9c-1.393,0-2.628,0.3-3.708,0.9
		c-1.08,0.601-2.028,1.404-2.844,2.412H83.587z"/>
	<path fill="#FFCE00" d="M102.451,16.683c1.296,0,2.387,0.457,3.276,1.368c0.888,0.912,1.379,2.041,1.476,3.384v28.44
		c0,0.961,0.312,1.775,0.936,2.447c0.624,0.673,1.416,1.008,2.376,1.008c1.248,0,2.34,0.433,3.276,1.297
		c0.936,0.863,1.428,1.943,1.476,3.239c0,1.152-0.396,2.173-1.188,3.061c-0.792,0.889-1.813,1.429-3.06,1.62h-1.008
		c-1.681,0-3.265-0.348-4.752-1.044c-1.488-0.695-2.797-1.62-3.924-2.772c-1.128-1.152-2.016-2.495-2.664-4.032
		c-0.648-1.535-0.972-3.144-0.972-4.823V21.147c0.144-1.199,0.648-2.232,1.512-3.096C100.075,17.187,101.155,16.731,102.451,16.683z
		"/>
	<path fill="#FFCE00" d="M122.611,16.683c1.296,0,2.387,0.457,3.276,1.368c0.888,0.912,1.379,2.041,1.476,3.384v28.44
		c0,0.961,0.312,1.775,0.936,2.447c0.624,0.673,1.416,1.008,2.376,1.008c1.248,0,2.34,0.433,3.276,1.297
		c0.936,0.863,1.428,1.943,1.476,3.239c0,1.152-0.396,2.173-1.188,3.061c-0.792,0.889-1.813,1.429-3.06,1.62h-1.008
		c-1.681,0-3.265-0.348-4.752-1.044c-1.488-0.695-2.797-1.62-3.924-2.772c-1.128-1.152-2.016-2.495-2.664-4.032
		c-0.648-1.535-0.972-3.144-0.972-4.823V21.147c0.144-1.199,0.648-2.232,1.512-3.096C120.235,17.187,121.315,16.731,122.611,16.683z
		"/>
	<path fill="#FFCE00" d="M151.988,28.275c2.351,0,4.583,0.457,6.696,1.368c2.112,0.913,3.96,2.16,5.544,3.744
		s2.844,3.432,3.78,5.544c0.936,2.112,1.404,4.392,1.404,6.84c0,2.401-0.457,4.644-1.368,6.731
		c-0.913,2.089-2.149,3.925-3.708,5.509c-1.561,1.584-3.396,2.833-5.508,3.744c-2.113,0.911-4.392,1.368-6.84,1.368
		c-2.401,0-4.656-0.433-6.768-1.297c-2.113-0.863-3.96-2.075-5.544-3.636c-1.584-1.559-2.833-3.396-3.744-5.508
		c-0.912-2.112-1.368-4.415-1.368-6.912c0-2.399,0.443-4.644,1.332-6.732c0.887-2.088,2.111-3.912,3.672-5.472
		c1.559-1.559,3.408-2.808,5.544-3.744C147.247,28.887,149.54,28.372,151.988,28.275z M151.988,37.707
		c-1.105,0-2.136,0.205-3.096,0.612c-0.96,0.408-1.812,0.972-2.556,1.692c-0.745,0.72-1.332,1.573-1.764,2.556
		c-0.432,0.984-0.648,2.053-0.648,3.204c0,1.104,0.216,2.149,0.648,3.132c0.432,0.984,1.019,1.849,1.764,2.592
		c0.744,0.745,1.595,1.332,2.556,1.765c0.96,0.432,1.991,0.647,3.096,0.647c1.104,0,2.147-0.216,3.132-0.647
		c0.983-0.433,1.836-1.02,2.556-1.765c0.72-0.743,1.296-1.607,1.728-2.592c0.432-0.982,0.648-2.027,0.648-3.132
		c-0.097-2.207-0.889-4.079-2.376-5.616C156.188,38.62,154.292,37.804,151.988,37.707z"/>
	<path fill="#FFCE00" d="M189.211,16.467c2.111,0,4.151,0.432,6.12,1.296c1.968,0.864,3.708,2.028,5.22,3.492
		c1.512,1.465,2.711,3.193,3.6,5.184c0.888,1.993,1.332,4.117,1.332,6.372c0,2.257-0.42,4.381-1.26,6.372
		c-0.84,1.992-1.979,3.733-3.42,5.22c-1.439,1.488-3.156,2.664-5.147,3.528c-1.993,0.864-4.141,1.296-6.444,1.296
		c-1.104,0-2.221-0.18-3.348-0.54c-1.129-0.36-2.221-0.947-3.276-1.764v10.655c0,1.394-0.48,2.557-1.44,3.492
		c-0.961,0.937-2.113,1.404-3.456,1.404c-1.344,0-2.484-0.468-3.42-1.404c-0.936-0.936-1.404-2.099-1.404-3.492V32.811
		c0.047-2.111,0.504-4.151,1.368-6.12c0.864-1.967,2.04-3.708,3.528-5.22c1.487-1.512,3.204-2.724,5.147-3.636
		C184.855,16.924,186.954,16.467,189.211,16.467z M189.211,39.507c1.823,0,3.384-0.636,4.68-1.908
		c1.296-1.271,1.944-2.868,1.944-4.788c0-0.911-0.18-1.775-0.54-2.592c-0.36-0.816-0.841-1.523-1.44-2.124
		c-0.601-0.6-1.296-1.068-2.088-1.404c-0.792-0.335-1.645-0.504-2.556-0.504c-0.912,0-1.776,0.169-2.592,0.504
		c-0.816,0.336-1.525,0.805-2.125,1.404c-0.6,0.601-1.068,1.308-1.403,2.124c-0.337,0.816-0.504,1.681-0.504,2.592
		c0,0.961,0.167,1.849,0.504,2.664c0.335,0.817,0.804,1.524,1.403,2.124c0.6,0.601,1.309,1.069,2.125,1.404
		C187.435,39.339,188.299,39.507,189.211,39.507z"/>
	<path fill="#FFCE00" d="M227.155,27.699c2.159,0.241,4.187,0.864,6.084,1.872c1.896,1.008,3.527,2.292,4.896,3.852
		c1.368,1.56,2.448,3.336,3.24,5.328c0.792,1.993,1.188,4.093,1.188,6.3v12.744c0,1.296-0.48,2.4-1.439,3.312
		c-0.961,0.912-2.041,1.368-3.24,1.368c-1.681,0-3.024-0.768-4.032-2.304c-0.24,0.097-0.456,0.204-0.647,0.323
		c-0.192,0.121-0.385,0.229-0.576,0.324c-1.152,0.529-2.329,0.937-3.528,1.225c-1.248,0.288-2.568,0.432-3.96,0.432
		c-3.6,0-6.816-0.972-9.647-2.916c-2.833-1.944-4.944-4.451-6.336-7.523c-0.48-1.104-0.854-2.232-1.116-3.385
		c-0.265-1.152-0.396-2.352-0.396-3.6s0.132-2.448,0.396-3.6c0.263-1.152,0.636-2.28,1.116-3.385c1.392-3.12,3.503-5.64,6.336-7.56
		c2.831-1.919,6.048-2.88,9.647-2.88c0.384,0,0.731,0,1.044,0C226.494,27.627,226.818,27.652,227.155,27.699z M225.066,53.116
		c1.104,0,2.148-0.204,3.133-0.613c0.982-0.406,1.836-0.971,2.556-1.691c0.72-0.72,1.296-1.572,1.728-2.557
		c0.433-0.982,0.648-2.051,0.648-3.203c0-1.056-0.216-2.076-0.648-3.061c-0.432-0.982-1.02-1.847-1.764-2.592
		c-0.745-0.744-1.608-1.332-2.592-1.764c-0.984-0.432-2.005-0.648-3.061-0.648s-2.063,0.216-3.023,0.648
		c-0.961,0.432-1.813,1.02-2.556,1.764c-0.745,0.745-1.332,1.609-1.765,2.592c-0.432,0.984-0.647,2.005-0.647,3.061
		c0,1.104,0.227,2.148,0.684,3.132c0.456,0.984,1.056,1.836,1.8,2.556c0.744,0.721,1.596,1.297,2.557,1.729
		C223.074,52.899,224.059,53.116,225.066,53.116z"/>
	<path fill="#FFCE00" d="M250.771,62.547c-1.296,0-2.376-0.42-3.24-1.261c-0.863-0.839-1.344-1.955-1.439-3.348V44.62
		c0.047-2.305,0.54-4.476,1.476-6.517c0.937-2.04,2.184-3.816,3.744-5.328c1.56-1.512,3.384-2.711,5.472-3.6
		c2.088-0.888,4.308-1.379,6.66-1.476c1.344,0,2.459,0.457,3.349,1.368c0.887,0.913,1.379,2.016,1.476,3.312
		c0,1.296-0.457,2.389-1.368,3.276c-0.912,0.889-2.041,1.356-3.384,1.404c-1.104,0-2.137,0.205-3.096,0.612
		c-0.961,0.409-1.801,0.972-2.521,1.692c-0.72,0.72-1.296,1.573-1.728,2.555c-0.433,0.984-0.648,2.053-0.648,3.205v13.104
		c-0.097,1.249-0.564,2.28-1.404,3.096C253.278,62.14,252.162,62.547,250.771,62.547z"/>
	<path fill="#FFCE00" d="M275.537,16.467c1.344,0,2.472,0.468,3.384,1.404c0.911,0.936,1.416,2.101,1.513,3.492v5.472h13.823
		c1.392,0,2.521,0.48,3.385,1.44c0.863,0.961,1.296,2.088,1.296,3.384c0,1.249-0.48,2.365-1.44,3.348
		c-0.961,0.984-2.041,1.476-3.24,1.476h-13.823v8.208c0,1.104,0.203,2.149,0.611,3.132c0.407,0.984,0.973,1.861,1.692,2.629
		s1.571,1.367,2.556,1.799c0.983,0.433,2.053,0.648,3.204,0.648c1.248,0,2.315-0.168,3.204-0.504c0.888-0.335,1.667-0.84,2.34-1.512
		c1.008-0.864,2.124-1.308,3.349-1.332c1.224-0.023,2.363,0.444,3.42,1.404c0.479,0.432,0.839,0.924,1.08,1.476
		c0.239,0.552,0.371,1.128,0.396,1.728c0.023,0.602-0.061,1.188-0.252,1.765c-0.192,0.576-0.504,1.08-0.936,1.512
		c-1.681,1.633-3.528,2.88-5.544,3.744c-2.017,0.864-4.177,1.296-6.48,1.296c-2.496,0-4.849-0.42-7.056-1.26
		c-2.209-0.84-4.152-2.04-5.832-3.601c-1.681-1.559-3.013-3.431-3.996-5.616c-0.984-2.184-1.501-4.619-1.548-7.308V21.003
		c0-1.296,0.491-2.376,1.476-3.24C273.101,16.899,274.241,16.467,275.537,16.467z"/>
	<path fill="#FFCE00" d="M308.729,27.555c1.199,0,2.292,0.408,3.276,1.224c0.983,0.816,1.476,1.872,1.476,3.168v13.032
		c0,1.105,0.204,2.137,0.612,3.096c0.407,0.961,0.972,1.801,1.691,2.521c0.721,0.72,1.572,1.296,2.557,1.728
		c0.983,0.432,2.052,0.648,3.204,0.648c1.008,0,2.003-0.191,2.987-0.576c0.983-0.384,1.848-0.911,2.593-1.584
		c0.743-0.672,1.343-1.477,1.8-2.412c0.455-0.936,0.684-1.955,0.684-3.061V32.163c0-1.248,0.443-2.328,1.332-3.24
		c0.888-0.912,2.004-1.368,3.348-1.368c1.248,0,2.352,0.421,3.313,1.26c0.96,0.84,1.44,1.885,1.44,3.132v37.008
		c0,1.247-0.48,2.304-1.44,3.168c-0.961,0.863-2.064,1.296-3.313,1.296c-1.2,0-2.28-0.433-3.239-1.296
		c-0.961-0.864-1.44-1.993-1.44-3.385v-8.279c-1.104,0.673-2.364,1.164-3.78,1.476c-1.416,0.313-2.844,0.468-4.283,0.468
		c-2.353,0-4.585-0.455-6.696-1.368c-2.113-0.911-3.973-2.159-5.58-3.743c-1.608-1.584-2.88-3.468-3.816-5.652
		c-0.936-2.184-1.403-4.572-1.403-7.164V32.163c0-1.248,0.443-2.328,1.332-3.24C306.269,28.012,307.384,27.555,308.729,27.555z"/>
</g>
</svg>
