<?xml version="1.0" encoding="utf-8"?>
<!-- Generator: Adobe Illustrator 16.0.0, SVG Export Plug-In . SVG Version: 6.00 Build 0)  -->
<!DOCTYPE svg PUBLIC "-//W3C//DTD SVG 1.1//EN" "http://www.w3.org/Graphics/SVG/1.1/DTD/svg11.dtd">
<svg version="1.1" id="Layer_1" xmlns="http://www.w3.org/2000/svg" xmlns:xlink="http://www.w3.org/1999/xlink" x="0px" y="0px"
	 width="362.336px" height="79.95px" viewBox="0 0 362.336 79.95" enable-background="new 0 0 362.336 79.95" xml:space="preserve">
<g>
	<path fill="#FFCE00" d="M19.8,8.49c2.579,0,5.069,0.51,7.47,1.53c2.399,1.021,4.514,2.43,6.345,4.23
		c1.83,1.8,3.285,3.915,4.365,6.345c1.08,2.43,1.62,5.026,1.62,7.785c0,2.761-0.511,5.355-1.53,7.785
		c-1.021,2.43-2.416,4.545-4.185,6.345c-1.771,1.8-3.856,3.226-6.255,4.275c-2.4,1.05-5.01,1.575-7.83,1.575
		c-1.26,0-2.79-0.405-4.59-1.215c-1.8-0.81-3.84-2.084-6.12-3.825v18.09c0,1.32-0.45,2.416-1.35,3.285C6.84,65.565,5.76,66,4.5,66
		c-1.26,0-2.326-0.435-3.195-1.305C0.435,63.826,0,62.73,0,61.41V28.47C0.059,25.891,0.615,23.4,1.665,21
		c1.049-2.399,2.475-4.529,4.275-6.39c1.8-1.859,3.884-3.344,6.255-4.455C14.564,9.045,17.1,8.49,19.8,8.49z M19.8,39.18
		c1.499,0,2.894-0.27,4.185-0.81c1.29-0.54,2.43-1.305,3.42-2.295c0.99-0.99,1.769-2.129,2.34-3.42
		c0.569-1.29,0.855-2.714,0.855-4.275c0-1.499-0.286-2.894-0.855-4.185c-0.571-1.29-1.35-2.415-2.34-3.375
		c-0.99-0.959-2.131-1.724-3.42-2.295c-1.291-0.569-2.686-0.855-4.185-0.855c-1.5,0-2.896,0.286-4.185,0.855
		c-1.291,0.571-2.416,1.336-3.375,2.295c-0.96,0.96-1.726,2.085-2.295,3.375C9.374,25.486,9.09,26.881,9.09,28.38
		c0,1.561,0.284,2.985,0.855,4.275c0.57,1.291,1.335,2.43,2.295,3.42c0.959,0.99,2.084,1.755,3.375,2.295
		C16.905,38.91,18.3,39.18,19.8,39.18z"/>
	<path fill="#FFCE00" d="M63.99,22.53c2.7,0.301,5.234,1.08,7.605,2.34c2.369,1.26,4.41,2.866,6.12,4.815
		c1.71,1.95,3.06,4.171,4.05,6.66c0.99,2.49,1.485,5.116,1.485,7.875v17.37c0,1.201-0.45,2.236-1.35,3.105
		C81,65.565,79.979,66,78.84,66c-0.42,0-0.886-0.029-1.395-0.09c-0.51-0.059-1.005-0.225-1.485-0.495
		c-0.481-0.27-0.916-0.644-1.305-1.125c-0.391-0.479-0.616-1.139-0.675-1.98c-0.301,0.121-0.841,0.391-1.62,0.81
		c-0.78,0.42-1.35,0.72-1.71,0.9c-0.661,0.301-1.35,0.571-2.07,0.81c-0.72,0.24-1.471,0.481-2.25,0.72
		c-1.5,0.301-3.121,0.45-4.86,0.45c-4.5,0-8.521-1.215-12.06-3.645c-3.541-2.43-6.181-5.564-7.92-9.405
		c-0.601-1.319-1.066-2.714-1.395-4.185c-0.331-1.47-0.495-2.984-0.495-4.545c0-1.56,0.165-3.06,0.495-4.5
		c0.329-1.44,0.794-2.849,1.395-4.23c1.739-3.9,4.379-7.05,7.92-9.45c3.54-2.399,7.56-3.6,12.06-3.6c0.479,0,0.9,0,1.26,0
		S63.509,22.471,63.99,22.53z M61.38,57.18c1.74,0,3.405-0.329,4.995-0.99c1.589-0.66,2.97-1.575,4.14-2.745
		c1.17-1.17,2.1-2.534,2.79-4.095c0.689-1.56,1.035-3.27,1.035-5.13c0-1.679-0.346-3.315-1.035-4.905
		c-0.69-1.589-1.636-2.97-2.835-4.14c-1.201-1.17-2.581-2.115-4.14-2.835c-1.561-0.72-3.21-1.08-4.95-1.08
		c-1.741,0-3.375,0.346-4.905,1.035c-1.53,0.69-2.896,1.636-4.095,2.835c-1.201,1.201-2.146,2.581-2.835,4.14
		c-0.69,1.561-1.035,3.21-1.035,4.95c0,1.8,0.36,3.48,1.08,5.04c0.72,1.561,1.695,2.925,2.925,4.095
		c1.229,1.17,2.61,2.101,4.14,2.79C58.185,56.835,59.76,57.18,61.38,57.18z"/>
	<path fill="#FFCE00" d="M90.179,66.09c-1.141,0-2.115-0.419-2.924-1.26c-0.811-0.84-1.307-1.859-1.486-3.06V43.68
		c0.061-2.939,0.676-5.67,1.846-8.19c1.17-2.52,2.744-4.725,4.725-6.615s4.275-3.389,6.885-4.5c2.611-1.109,5.385-1.724,8.326-1.845
		c1.139,0.061,2.129,0.54,2.969,1.44c0.84,0.9,1.35,1.89,1.531,2.97c-0.121,1.141-0.602,2.146-1.441,3.015
		c-0.84,0.871-1.859,1.336-3.059,1.395c-1.742,0-3.391,0.331-4.951,0.99c-1.561,0.661-2.924,1.575-4.094,2.745
		s-2.102,2.536-2.791,4.095c-0.689,1.561-1.035,3.271-1.035,5.13v17.91c-0.18,1.021-0.674,1.921-1.484,2.7
		C92.384,65.701,91.378,66.09,90.179,66.09z"/>
	<path fill="#FFCE00" d="M118.35,8.4c1.318,0,2.414,0.465,3.285,1.395c0.868,0.931,1.363,2.085,1.484,3.465v8.1h20.79
		c1.26,0,2.31,0.466,3.15,1.395c0.839,0.931,1.26,1.996,1.26,3.195c0,1.201-0.45,2.281-1.35,3.24c-0.9,0.96-1.921,1.44-3.061,1.44
		h-20.79v13.14c0,1.741,0.329,3.406,0.99,4.995c0.659,1.59,1.575,2.985,2.745,4.185c1.17,1.201,2.55,2.16,4.14,2.88
		c1.589,0.72,3.285,1.08,5.085,1.08c2.039,0,3.765-0.284,5.175-0.855c1.409-0.57,2.655-1.364,3.735-2.385h-0.09
		c0.9-0.839,2.01-1.26,3.33-1.26c1.26,0,2.369,0.45,3.33,1.35c0.839,0.781,1.26,1.831,1.26,3.15c0,0.481-0.076,0.976-0.225,1.485
		c-0.15,0.51-0.437,0.945-0.855,1.305h0.09c-2.101,2.04-4.396,3.6-6.885,4.68c-2.49,1.08-5.206,1.62-8.145,1.62
		c-3.121,0-6.075-0.524-8.865-1.575c-2.79-1.049-5.221-2.549-7.29-4.5c-2.07-1.949-3.735-4.289-4.995-7.02
		c-1.26-2.729-1.921-5.774-1.98-9.135V13.26c0-1.199,0.435-2.309,1.306-3.33C115.844,8.911,116.969,8.4,118.35,8.4z"/>
	<path fill="#FFCE00" d="M158.128,22.35c1.199,0,2.264,0.375,3.195,1.125c0.929,0.751,1.395,1.726,1.395,2.925v17.73
		c0,1.741,0.329,3.391,0.99,4.95c0.659,1.561,1.56,2.925,2.7,4.095c1.139,1.17,2.504,2.101,4.095,2.79
		c1.589,0.69,3.285,1.035,5.085,1.035c1.62,0,3.209-0.315,4.77-0.945c1.56-0.63,2.955-1.485,4.186-2.565
		c1.229-1.08,2.205-2.385,2.925-3.915c0.72-1.53,1.08-3.195,1.08-4.995V26.67c0-1.199,0.419-2.219,1.26-3.06
		c0.84-0.839,1.891-1.26,3.15-1.26c1.199,0,2.25,0.375,3.149,1.125c0.9,0.751,1.351,1.726,1.351,2.925v49.41
		c0,1.2-0.45,2.189-1.351,2.97c-0.899,0.779-1.95,1.17-3.149,1.17c-1.141,0-2.16-0.405-3.061-1.215
		c-0.899-0.81-1.35-1.876-1.35-3.195V61.77c-2.4,1.5-4.695,2.565-6.885,3.195c-2.191,0.63-4.216,0.945-6.075,0.945
		c-2.94,0-5.73-0.57-8.37-1.71c-2.641-1.139-4.966-2.7-6.975-4.68c-2.011-1.98-3.601-4.35-4.771-7.11
		c-1.17-2.759-1.755-5.76-1.755-9V26.67c0-1.199,0.419-2.219,1.26-3.06C155.818,22.771,156.869,22.35,158.128,22.35z"/>
	<path fill="#FFCE00" d="M220.317,8.49c2.579,0,5.069,0.51,7.47,1.53c2.399,1.021,4.514,2.43,6.345,4.23
		c1.83,1.8,3.285,3.915,4.365,6.345c1.08,2.43,1.62,5.026,1.62,7.785c0,2.761-0.511,5.355-1.53,7.785
		c-1.021,2.43-2.416,4.545-4.185,6.345c-1.771,1.8-3.856,3.226-6.255,4.275c-2.4,1.05-5.011,1.575-7.83,1.575
		c-1.26,0-2.79-0.405-4.59-1.215c-1.801-0.81-3.841-2.084-6.12-3.825v18.09c0,1.32-0.45,2.416-1.351,3.285
		c-0.899,0.871-1.979,1.305-3.239,1.305c-1.261,0-2.326-0.435-3.195-1.305c-0.87-0.869-1.305-1.964-1.305-3.285V28.47
		c0.059-2.579,0.614-5.07,1.665-7.47c1.049-2.399,2.475-4.529,4.274-6.39c1.8-1.859,3.884-3.344,6.255-4.455
		C215.082,9.045,217.617,8.49,220.317,8.49z M220.317,39.18c1.499,0,2.894-0.27,4.185-0.81c1.29-0.54,2.431-1.305,3.42-2.295
		c0.99-0.99,1.77-2.129,2.34-3.42c0.57-1.29,0.855-2.714,0.855-4.275c0-1.499-0.285-2.894-0.855-4.185
		c-0.57-1.29-1.35-2.415-2.34-3.375c-0.989-0.959-2.13-1.724-3.42-2.295c-1.291-0.569-2.686-0.855-4.185-0.855
		c-1.501,0-2.896,0.286-4.186,0.855c-1.291,0.571-2.416,1.336-3.375,2.295c-0.96,0.96-1.726,2.085-2.295,3.375
		c-0.57,1.291-0.854,2.686-0.854,4.185c0,1.561,0.284,2.985,0.854,4.275c0.569,1.291,1.335,2.43,2.295,3.42
		c0.959,0.99,2.084,1.755,3.375,2.295C217.421,38.91,218.816,39.18,220.317,39.18z"/>
	<path fill="#FFCE00" d="M264.506,22.53c2.7,0.301,5.234,1.08,7.605,2.34c2.369,1.26,4.41,2.866,6.12,4.815
		c1.71,1.95,3.06,4.171,4.05,6.66c0.99,2.49,1.485,5.116,1.485,7.875v17.37c0,1.201-0.45,2.236-1.351,3.105
		c-0.899,0.871-1.921,1.305-3.06,1.305c-0.421,0-0.887-0.029-1.396-0.09c-0.511-0.059-1.005-0.225-1.484-0.495
		c-0.481-0.27-0.916-0.644-1.306-1.125c-0.391-0.479-0.615-1.139-0.675-1.98c-0.301,0.121-0.841,0.391-1.62,0.81
		c-0.78,0.42-1.35,0.72-1.71,0.9c-0.661,0.301-1.35,0.571-2.07,0.81c-0.72,0.24-1.471,0.481-2.25,0.72
		c-1.5,0.301-3.12,0.45-4.859,0.45c-4.5,0-8.521-1.215-12.061-3.645c-3.541-2.43-6.18-5.564-7.92-9.405
		c-0.601-1.319-1.065-2.714-1.395-4.185c-0.331-1.47-0.495-2.984-0.495-4.545c0-1.56,0.164-3.06,0.495-4.5
		c0.329-1.44,0.794-2.849,1.395-4.23c1.74-3.9,4.379-7.05,7.92-9.45c3.54-2.399,7.561-3.6,12.061-3.6c0.479,0,0.899,0,1.26,0
		S264.026,22.471,264.506,22.53z M261.897,57.18c1.739,0,3.404-0.329,4.995-0.99c1.589-0.66,2.97-1.575,4.14-2.745
		c1.17-1.17,2.1-2.534,2.79-4.095c0.688-1.56,1.035-3.27,1.035-5.13c0-1.679-0.347-3.315-1.035-4.905
		c-0.69-1.589-1.636-2.97-2.835-4.14c-1.201-1.17-2.581-2.115-4.141-2.835c-1.561-0.72-3.21-1.08-4.949-1.08
		c-1.741,0-3.375,0.346-4.905,1.035c-1.53,0.69-2.896,1.636-4.095,2.835c-1.201,1.201-2.146,2.581-2.835,4.14
		c-0.69,1.561-1.035,3.21-1.035,4.95c0,1.8,0.359,3.48,1.08,5.04c0.72,1.561,1.694,2.925,2.925,4.095
		c1.229,1.17,2.61,2.101,4.14,2.79C258.702,56.835,260.277,57.18,261.897,57.18z"/>
	<path fill="#FFCE00" d="M307.977,22.44c5.999,0,11.1,2.101,15.3,6.3h-0.09c0.419,0.42,0.704,0.855,0.854,1.305
		c0.149,0.45,0.226,0.886,0.226,1.305c0,1.26-0.45,2.34-1.351,3.24c-0.42,0.42-0.915,0.72-1.484,0.9
		c-0.571,0.18-1.156,0.27-1.756,0.27c-1.32,0-2.37-0.389-3.149-1.17c-2.461-2.219-5.311-3.33-8.55-3.33
		c-1.741,0-3.406,0.36-4.995,1.08c-1.591,0.72-2.985,1.681-4.186,2.88c-1.2,1.201-2.146,2.58-2.835,4.14
		c-0.69,1.561-1.035,3.181-1.035,4.86c0,1.741,0.36,3.406,1.08,4.995c0.721,1.591,1.68,3.001,2.88,4.23
		c1.2,1.23,2.579,2.191,4.141,2.88c1.56,0.69,3.209,0.976,4.95,0.855c3.299,0,6.329-1.229,9.09-3.69c0.54-0.599,1.439-0.9,2.7-0.9
		c1.139,0,2.159,0.481,3.06,1.44c0.959,0.9,1.44,1.89,1.44,2.97c0,0.481-0.091,0.976-0.271,1.485c-0.18,0.511-0.45,0.916-0.81,1.215
		c-2.102,2.101-4.396,3.676-6.886,4.725c-2.49,1.051-5.265,1.575-8.324,1.575c-3.001,0-5.821-0.585-8.46-1.755
		c-2.642-1.17-4.95-2.745-6.931-4.725c-1.979-1.98-3.555-4.289-4.725-6.93c-1.17-2.639-1.755-5.429-1.755-8.37
		c0-2.88,0.585-5.625,1.755-8.235c1.17-2.61,2.759-4.919,4.77-6.93c2.01-2.01,4.334-3.614,6.976-4.815
		C302.247,23.041,305.037,22.44,307.977,22.44z"/>
	<path fill="#FFCE00" d="M361.076,58.17c0.36,0.481,0.66,1.005,0.9,1.575c0.239,0.571,0.36,1.125,0.36,1.665
		c0,0.6-0.091,1.186-0.271,1.755c-0.18,0.571-0.511,1.095-0.99,1.575v-0.09c-1.08,0.96-2.22,1.44-3.42,1.44s-2.25-0.45-3.149-1.35
		l-18.09-18.09v14.76c0,1.201-0.466,2.265-1.396,3.195C334.09,65.536,332.996,66,331.736,66c-1.201,0-2.28-0.45-3.24-1.35
		s-1.439-1.98-1.439-3.24V13.08c0-1.2,0.464-2.264,1.395-3.195c0.93-0.929,2.025-1.395,3.285-1.395c1.319,0,2.431,0.45,3.33,1.35
		c0.9,0.9,1.351,1.98,1.351,3.24v28.08l18.09-18.09c0.839-0.839,1.89-1.26,3.149-1.26c0.6,0,1.2,0.105,1.8,0.315
		c0.6,0.211,1.14,0.556,1.62,1.035v-0.09c0.479,0.481,0.811,1.006,0.99,1.575c0.18,0.571,0.271,1.156,0.271,1.755
		c0,1.321-0.421,2.4-1.261,3.24l-14.31,14.31L361.076,58.17z"/>
</g>
</svg>
